<svg width="32" height="32" viewBox="0 0 32 32" fill="none" xmlns="http://www.w3.org/2000/svg">
<path d="M7 1.25H25C28.1756 1.25 30.75 3.82436 30.75 7V25C30.75 28.1756 28.1756 30.75 25 30.75H7C3.82436 30.75 1.25 28.1756 1.25 25V7C1.25 3.82436 3.82436 1.25 7 1.25Z" fill="#678B4E" stroke="#678B4E" stroke-width="2.5"/>
<path d="M23.1703 9.01938L6.78106 15.4061C6.2502 15.613 6.28236 16.3748 6.82881 16.5361L10.9935 17.7659L12.5478 22.6978C12.7101 23.2129 13.3629 23.3691 13.7409 22.9832L15.8941 20.7846L20.119 23.8858C20.636 24.2653 21.3724 23.9834 21.5036 23.3556L24.3018 9.97756C24.4388 9.32227 23.7941 8.7763 23.1703 9.01938ZM21.1156 11.9883L13.5028 18.7202C13.4269 18.7874 13.3787 18.8802 13.3674 18.9809L13.0743 21.5864C13.0647 21.6714 12.9458 21.6826 12.9204 21.601L11.7145 17.7153C11.6593 17.5374 11.7313 17.3446 11.8896 17.2465L20.8794 11.6709C21.0861 11.5426 21.2978 11.8272 21.1156 11.9883Z" fill="white"/>
</svg>
