<svg width="32" height="32" viewBox="0 0 32 32" fill="none" xmlns="http://www.w3.org/2000/svg">
<g clip-path="url(#clip0_1_814)">
<rect width="32" height="32" rx="7" fill="#678B4E"/>
<path d="M31.9747 9.40809C31.8997 7.7078 31.6247 6.53887 31.2308 5.52598C30.8243 4.45082 30.1991 3.48823 29.3799 2.68803C28.5796 1.87537 27.6105 1.2439 26.5475 0.843915C25.5286 0.450039 24.3655 0.175083 22.6649 0.100117C20.9516 0.0188025 20.4077 0 16.0623 0C11.7168 0 11.1729 0.0188025 9.46594 0.0937683C7.76533 0.168734 6.59617 0.443934 5.58333 0.837566C4.50771 1.2439 3.54494 1.86902 2.74458 2.68803C1.93176 3.48823 1.30041 4.45717 0.900109 5.51988C0.506157 6.53888 0.231147 7.70146 0.156167 9.40174C0.0748364 11.1147 0.0560303 11.6585 0.0560303 16.0031C0.0560303 20.3477 0.0748364 20.8915 0.149817 22.5982C0.224797 24.2984 0.500051 25.4674 0.894003 26.4803C1.30041 27.5554 1.93176 28.518 2.74458 29.3182C3.54494 30.1309 4.51406 30.7624 5.57698 31.1623C6.59617 31.5562 7.75898 31.8312 9.45984 31.9061C11.1666 31.9813 11.7107 31.9999 16.0562 31.9999C20.4016 31.9999 20.9455 31.9813 22.6525 31.9061C24.3531 31.8312 25.5222 31.5562 26.5351 31.1623C28.6861 30.3309 30.3867 28.6306 31.2183 26.4803C31.612 25.4613 31.8873 24.2984 31.9622 22.5982C32.0372 20.8915 32.056 20.3477 32.056 16.0031C32.056 11.6585 32.0497 11.1147 31.9747 9.40809ZM29.0925 22.4731C29.0236 24.0359 28.761 24.8799 28.5422 25.4425C28.0044 26.8365 26.8978 27.943 25.5034 28.4807C24.9407 28.6995 24.0905 28.962 22.5335 29.0306C20.8454 29.1058 20.3391 29.1243 16.0686 29.1243C11.7981 29.1243 11.2855 29.1058 9.60345 29.0306C8.04034 28.962 7.19626 28.6995 6.63354 28.4807C5.93967 28.2243 5.30807 27.8179 4.79542 27.2866C4.26397 26.7677 3.85756 26.1426 3.60111 25.4488C3.38228 24.8862 3.11972 24.0359 3.05109 22.4795C2.97587 20.7917 2.95731 20.2852 2.95731 16.0156C2.95731 11.7459 2.97587 11.2334 3.05109 9.55191C3.11972 7.98911 3.38228 7.14519 3.60111 6.58258C3.85756 5.8886 4.26397 5.25737 4.80177 4.74458C5.32053 4.21323 5.94577 3.8069 6.63989 3.55074C7.20261 3.33195 8.05304 3.06945 9.6098 3.00059C11.298 2.92562 11.8045 2.90682 16.0747 2.90682C20.3515 2.90682 20.8578 2.92562 22.5399 3.00059C24.103 3.06945 24.9471 3.33195 25.5098 3.55074C26.2037 3.8069 26.8353 4.21323 27.3479 4.74458C27.8794 5.26348 28.2858 5.8886 28.5422 6.58258C28.761 7.14519 29.0236 7.99521 29.0925 9.55191C29.1675 11.2397 29.1863 11.7459 29.1863 16.0156C29.1863 20.2852 29.1675 20.7853 29.0925 22.4731Z" fill="#678B4E"/>
<path d="M16.0593 7.78247C11.5211 7.78247 7.83899 11.4643 7.83899 16.0028C7.83899 20.5413 11.5211 24.2232 16.0593 24.2232C20.5978 24.2232 24.2797 20.5413 24.2797 16.0028C24.2797 11.4643 20.5978 7.78247 16.0593 7.78247ZM16.0593 21.3352C13.1152 21.3352 10.727 18.9473 10.727 16.0028C10.727 13.0584 13.1152 10.6705 16.0593 10.6705C19.0038 10.6705 21.3917 13.0584 21.3917 16.0028C21.3917 18.9473 19.0038 21.3352 16.0593 21.3352V21.3352Z" fill="white"/>
<path d="M26.524 7.45765C26.524 8.51743 25.6647 9.37673 24.6046 9.37673C23.5448 9.37673 22.6855 8.51743 22.6855 7.45765C22.6855 6.39763 23.5448 5.53857 24.6046 5.53857C25.6647 5.53857 26.524 6.39763 26.524 7.45765V7.45765Z" fill="white"/>
</g>
<defs>
<clipPath id="clip0_1_814">
<rect width="32" height="32" fill="white"/>
</clipPath>
</defs>
</svg>
