<svg width="42" height="42" viewBox="0 0 42 42" fill="none" xmlns="http://www.w3.org/2000/svg">
<path d="M18.4695 10.9201L12.5493 4.0863C11.8668 3.2988 10.6155 3.3023 9.82279 4.0968L4.95429 8.97405C3.50529 10.4248 3.09054 12.5791 3.92879 14.3063C8.93662 24.675 17.2989 33.049 27.6605 38.0713C29.386 38.9096 31.5385 38.4948 32.9875 37.0441L37.9015 32.1213C38.6978 31.3251 38.6995 30.0668 37.905 29.3843L31.045 23.4956C30.3275 22.8796 29.2128 22.9601 28.4935 23.6811L26.1065 26.0716C25.9843 26.1996 25.8235 26.2841 25.6487 26.3119C25.4738 26.3397 25.2947 26.3094 25.1388 26.2256C21.2371 23.9787 18.0005 20.738 15.7588 16.8333C15.6748 16.6771 15.6444 16.4977 15.6723 16.3226C15.7001 16.1475 15.7846 15.9863 15.9128 15.8638L18.2928 13.4821C19.0138 12.7576 19.0925 11.6376 18.4695 10.9183V10.9201Z" stroke="#678B4E" stroke-width="3" stroke-linecap="round" stroke-linejoin="round"/>
</svg>
