<svg width="32" height="32" viewBox="0 0 32 32" fill="none" xmlns="http://www.w3.org/2000/svg">
<path d="M7 1.25H25C28.1756 1.25 30.75 3.82436 30.75 7V25C30.75 28.1756 28.1756 30.75 25 30.75H7C3.82436 30.75 1.25 28.1756 1.25 25V7C1.25 3.82436 3.82436 1.25 7 1.25Z" fill="#678B4E" stroke="#678B4E" stroke-width="2.5"/>
<path d="M17.5619 24.4243V17.7862H19.7997L20.135 15.188H17.5619V13.5332C17.5619 12.7827 17.7702 12.2713 18.8465 12.2713H20.2104V9.95371C19.9731 9.92215 19.1589 9.85156 18.2116 9.85156C16.2336 9.85156 14.8798 11.0585 14.8798 13.2759V15.188H12.6504V17.7862H14.8798V24.4243H17.5619Z" fill="white"/>
<path d="M13 7.25H20C23.1756 7.25 25.75 9.82436 25.75 13V20C25.75 23.1756 23.1756 25.75 20 25.75H13C9.82436 25.75 7.25 23.1756 7.25 20V13C7.25 9.82436 9.82436 7.25 13 7.25Z" stroke="white" stroke-width="2.5"/>
</svg>
