<svg width="50" height="100" viewBox="0 0 50 100" fill="none" xmlns="http://www.w3.org/2000/svg">
<path d="M49.875 45H50V90C50 92.6522 48.9464 95.1957 47.0711 97.0711C45.1957 98.9464 42.6522 100 40 100H10C7.34784 100 4.8043 98.9464 2.92893 97.0711C1.05357 95.1957 0 92.6522 0 90V45H0.125C0.562863 41.1131 2.13089 37.4399 4.635 34.435L10.185 27.785C11.6834 25.9853 12.5027 23.7168 12.5 21.375V5C12.5 3.67392 13.0268 2.40215 13.9645 1.46447C14.9021 0.526784 16.1739 0 17.5 0H32.5C33.8261 0 35.0979 0.526784 36.0355 1.46447C36.9732 2.40215 37.5 3.67392 37.5 5V21.38C37.5011 23.719 38.322 25.9836 39.82 27.78L45.365 34.435C47.8691 37.4399 49.4371 41.1131 49.875 45ZM39.745 45C39.3927 43.4705 38.6853 42.0454 37.68 40.84L32.135 34.185C29.1397 30.5903 27.4995 26.0591 27.5 21.38V10H22.5V21.38C22.4993 26.0574 20.8592 30.5866 17.865 34.18L12.315 40.84C11.3133 42.0464 10.6094 43.4714 10.26 45H39.75H39.745ZM40 80H10V90H40V80ZM10 55V70H40V55H10Z" fill="#F3D94C"/>
</svg>
