<svg width="42" height="42" viewBox="0 0 42 42" fill="none" xmlns="http://www.w3.org/2000/svg">
<path d="M41.125 29.75L32.375 38.5L26.25 32.375L28.875 29.75L32.375 33.25L38.5 27.125L41.125 29.75ZM22.925 34.825C22.225 35 21.7 35 21 35C13.3 35 7 28.7 7 21C7 13.3 13.3 7 21 7C28.7 7 35 13.3 35 21C35 21.7 35 22.225 34.825 22.925C36.05 23.1 37.1 23.45 38.15 23.975C38.325 22.925 38.5 22.05 38.5 21C38.5 11.375 30.625 3.5 21 3.5C11.375 3.5 3.5 11.375 3.5 21C3.5 30.625 11.375 38.5 21 38.5C22.05 38.5 23.1 38.325 23.975 38.15C23.45 37.275 23.1 36.05 22.925 34.825V34.825ZM27.3 24.675L21.875 21.525V12.25H19.25V22.75L25.375 26.425C25.9 25.725 26.6 25.2 27.3 24.675V24.675Z" fill="#678B4E"/>
</svg>
