<svg width="64" height="64" viewBox="0 0 64 64" fill="none" xmlns="http://www.w3.org/2000/svg">
<g clip-path="url(#clip0_1_216)">
<path fill-rule="evenodd" clip-rule="evenodd" d="M15.195 41.09H30.751V57.308C28.882 57.308 27.008 57.306 25.133 57.31C22.531 57.314 19.924 57.382 17.326 57.314C14.448 57.238 12.276 55.89 10.931 53.33C8.259 48.257 5.636 43.163 2.949 38.1C1.648 35.654 1.717 33.383 3.337 31.09C4.337 29.676 5.154 28.134 6.145 26.496C4.148 25.276 2.169 24.071 0 22.747C0.424 22.667 0.643 22.591 0.863 22.587C5.883 22.528 10.913 22.454 15.923 22.466C16.495 22.468 17.313 22.817 17.598 23.267C20.647 28.082 23.608 32.949 26.591 37.802C26.618 37.853 26.595 37.934 26.595 38.205L19.46 33.901L15.19 41.087L15.195 41.09ZM29.398 42.588C29.232 42.536 29.127 42.474 29.021 42.474C24.339 42.462 19.662 42.447 14.981 42.482C14.66 42.486 14.237 42.809 14.05 43.105C13.404 44.12 12.856 45.197 12.243 46.236C9.713 50.511 12.471 55.703 17.445 55.942C19.365 56.036 21.289 55.979 23.211 55.983C25.271 55.989 27.33 55.983 29.398 55.983V42.588" fill="#009345"/>
<path fill-rule="evenodd" clip-rule="evenodd" d="M11.416 45.45C11.416 45.45 15.18 46.242 15.231 46.291C15.282 46.342 16.999 51.413 17.034 51.499C17.069 51.582 15.231 56.702 15.231 56.702L11.231 52.702L9.78802 47.156L11.42 45.454" fill="#009345"/>
<path fill-rule="evenodd" clip-rule="evenodd" d="M30.687 41.24V57.32C28.504 57.32 26.325 57.322 24.142 57.318C22.113 57.314 20.08 57.384 18.051 57.271C12.793 56.983 9.87997 50.748 12.553 45.616C13.201 44.37 13.78 43.075 14.466 41.856C14.662 41.503 15.111 41.112 15.445 41.108C20.393 41.065 25.34 41.087 30.286 41.108C30.398 41.108 30.51 41.185 30.687 41.247" fill="#076735"/>
<path fill-rule="evenodd" clip-rule="evenodd" d="M33.23 11.478C30.749 16.19 28.383 20.679 25.981 25.238C21.167 22.702 16.466 20.228 11.631 17.68C12.502 16.027 13.378 14.371 14.248 12.712C15.456 10.406 16.61 8.069 17.882 5.799C19.29 3.291 21.494 2 24.386 2C30.117 2 35.852 2.055 41.583 2.035C44.353 2.034 46.331 3.143 47.603 5.645C48.386 7.189 49.374 8.628 50.359 10.27C52.369 9.07 54.355 7.882 56.542 6.578C56.414 6.991 56.379 7.221 56.277 7.415C53.987 11.886 51.716 16.365 49.366 20.801C49.099 21.307 48.412 21.868 47.876 21.911C42.198 22.363 36.512 22.717 30.826 23.095C30.769 23.095 30.711 23.036 30.472 22.908L37.603 18.6C36.175 16.272 34.767 13.98 33.233 11.478H33.23ZM25.283 23.349C25.408 23.226 25.513 23.162 25.564 23.069C27.751 18.933 29.945 14.8 32.097 10.641C32.243 10.361 32.154 9.833 31.978 9.531C31.382 8.483 30.683 7.498 30.048 6.469C27.446 2.24 21.567 2.261 19.038 6.549C18.06 8.202 17.217 9.933 16.318 11.632C15.352 13.453 14.396 15.279 13.434 17.106C17.498 19.248 21.395 21.3 25.286 23.349" fill="#009345"/>
<path fill-rule="evenodd" clip-rule="evenodd" d="M31.13 6.09901C31.13 6.09901 28.676 9.05901 28.608 9.08201C28.538 9.10301 23.251 8.26401 23.161 8.25201C23.068 8.24301 19.393 4.23201 19.393 4.23201L24.803 2.55701L30.386 3.86601L31.13 6.10101" fill="#009345"/>
<path fill-rule="evenodd" clip-rule="evenodd" d="M25.871 25.11C21.201 22.651 16.523 20.185 11.64 17.615C12.661 15.685 13.673 13.757 14.691 11.829C15.644 10.033 16.527 8.20099 17.571 6.45999C20.278 1.94399 27.154 2.26899 30.447 7.02699C31.245 8.18199 32.126 9.29599 32.885 10.47C33.103 10.811 33.24 11.387 33.086 11.687C30.817 16.083 28.496 20.451 26.181 24.817C26.128 24.917 26.011 24.981 25.871 25.107" fill="#076735"/>
<path fill-rule="evenodd" clip-rule="evenodd" d="M50.07 41.532L42.175 28.128C46.867 25.367 51.445 22.671 56.153 19.899C57.102 21.509 58.049 23.124 59.001 24.74C60.327 26.977 61.708 29.192 62.97 31.464C64.361 33.982 64.302 36.535 62.781 38.996C59.761 43.871 56.704 48.718 53.711 53.603C52.264 55.965 50.27 57.058 47.474 56.82C45.75 56.676 44.007 56.758 42.091 56.735L41.982 63.932C41.696 63.611 41.517 63.456 41.406 63.266C38.808 58.97 36.195 54.68 33.655 50.347C33.367 49.853 33.255 48.972 33.5 48.497C36.098 43.43 38.791 38.407 41.457 33.377C41.486 33.33 41.567 33.309 41.804 33.17C41.777 35.964 41.747 38.659 41.718 41.501C44.446 41.515 47.138 41.523 50.074 41.536L50.07 41.532ZM44.158 28.526C44.195 28.697 44.195 28.818 44.247 28.911C46.615 32.951 48.976 36.991 51.383 41.001C51.544 41.273 52.041 41.477 52.393 41.488C53.598 41.531 54.806 41.453 56.011 41.457C60.977 41.469 64.051 36.457 61.737 32.047C60.842 30.347 59.812 28.717 58.842 27.06C57.8 25.282 56.751 23.506 55.703 21.726C51.746 24.058 47.95 26.291 44.163 28.523" fill="#009345"/>
<path fill-rule="evenodd" clip-rule="evenodd" d="M55.748 42.575C55.748 42.575 54.52 38.933 54.536 38.862C54.556 38.792 58.052 34.739 58.11 34.665C58.162 34.591 63.509 33.576 63.509 33.576L62.092 39.058L58.039 43.119L55.748 42.575Z" fill="#009345"/>
<path fill-rule="evenodd" clip-rule="evenodd" d="M42.34 28.11L56.199 19.949C57.307 21.83 58.418 23.707 59.517 25.589C60.543 27.341 61.636 29.057 62.567 30.86C64.984 35.54 61.093 41.214 55.313 41.514C53.911 41.587 52.501 41.745 51.105 41.775C50.698 41.776 50.133 41.595 49.963 41.305C47.418 37.064 44.923 32.793 42.425 28.523C42.369 28.428 42.377 28.292 42.34 28.11" fill="#076735"/>
</g>
<defs>
<clipPath id="clip0_1_216">
<rect width="64" height="64" fill="white"/>
</clipPath>
</defs>
</svg>
