<svg width="48" height="48" viewBox="0 0 48 48" fill="none" xmlns="http://www.w3.org/2000/svg">
<path d="M7 1.25H41C44.1756 1.25 46.75 3.82436 46.75 7V41C46.75 44.1756 44.1756 46.75 41 46.75H7C3.82436 46.75 1.25 44.1756 1.25 41V7C1.25 3.82436 3.82436 1.25 7 1.25Z" fill="#31C12B" stroke="#31C12B" stroke-width="2.5"/>
<path d="M26.3428 36.6364V26.6794H29.6996L30.2024 22.782H26.3428V20.2998C26.3428 19.174 26.6553 18.4069 28.2697 18.4069H30.3156V14.9306C29.9596 14.8832 28.7384 14.7773 27.3173 14.7773C24.3503 14.7773 22.3198 16.5877 22.3198 19.9138V22.782H18.9756V26.6794H22.3198V36.6364H26.3428Z" fill="white"/>
<path d="M16 10.25H33.5C36.6756 10.25 39.25 12.8244 39.25 16V33.5C39.25 36.6756 36.6756 39.25 33.5 39.25H16C12.8244 39.25 10.25 36.6756 10.25 33.5V16C10.25 12.8244 12.8244 10.25 16 10.25Z" stroke="white" stroke-width="2.5"/>
</svg>
