<svg width="48" height="48" viewBox="0 0 48 48" fill="none" xmlns="http://www.w3.org/2000/svg">
<g clip-path="url(#clip0_1_616)">
<rect y="0.000976562" width="48" height="48" rx="7" fill="#31C12B"/>
<path d="M47.9621 14.1131C47.8497 11.5627 47.4371 9.80929 46.8462 8.28995C46.2366 6.67721 45.2987 5.23332 44.07 4.03301C42.8694 2.81403 41.4158 1.86682 39.8214 1.26685C38.293 0.676035 36.5484 0.263601 33.9975 0.151152C31.4275 0.0291803 30.6116 0.000976562 24.0935 0.000976562C17.5753 0.000976562 16.7594 0.0291803 14.199 0.141629C11.6481 0.254078 9.89434 0.666878 8.37507 1.25733C6.76165 1.86682 5.31748 2.8045 4.11694 4.03301C2.89772 5.23332 1.95069 6.68673 1.35024 8.28079C0.759311 9.80929 0.346797 11.5532 0.234327 14.1036C0.112331 16.6731 0.0841217 17.4888 0.0841217 24.0057C0.0841217 30.5226 0.112331 31.3383 0.224801 33.8982C0.337272 36.4486 0.750152 38.202 1.34108 39.7214C1.95069 41.3341 2.89772 42.778 4.11694 43.9783C5.31748 45.1973 6.77117 46.1445 8.36554 46.7445C9.89434 47.3353 11.6385 47.7477 14.1898 47.8602C16.7499 47.973 17.5661 48.0008 24.0843 48.0008C30.6025 48.0008 31.4183 47.973 33.9788 47.8602C36.5297 47.7477 38.2834 47.3353 39.8027 46.7445C43.0292 45.4973 45.5801 42.9469 46.8275 39.7214C47.4181 38.1929 47.831 36.4486 47.9434 33.8982C48.0559 31.3383 48.0841 30.5226 48.0841 24.0057C48.0841 17.4888 48.0746 16.6731 47.9621 14.1131ZM43.6388 33.7107C43.5355 36.0549 43.1416 37.3208 42.8134 38.1647C42.0067 40.2558 40.3467 41.9154 38.2552 42.722C37.4111 43.0502 36.1359 43.4439 33.8004 43.5468C31.2681 43.6597 30.5087 43.6875 24.103 43.6875C17.6973 43.6875 16.9283 43.6597 14.4052 43.5468C12.0606 43.4439 10.7945 43.0502 9.95039 42.722C8.90958 42.3374 7.96219 41.7279 7.19321 40.9308C6.39603 40.1525 5.78641 39.2148 5.40174 38.1742C5.07349 37.3303 4.67966 36.0549 4.57671 33.7202C4.46388 31.1885 4.43603 30.4288 4.43603 24.0243C4.43603 17.6199 4.46388 16.8511 4.57671 14.3288C4.67966 11.9846 5.07349 10.7188 5.40174 9.87485C5.78641 8.83388 6.39603 7.88704 7.20274 7.11785C7.98087 6.32081 8.91874 5.71132 9.95991 5.32709C10.804 4.9989 12.0796 4.60515 14.4148 4.50186C16.947 4.38941 17.7068 4.3612 24.1121 4.3612C30.5274 4.3612 31.2868 4.38941 33.8099 4.50186C36.1546 4.60515 37.4207 4.9989 38.2647 5.32709C39.3056 5.71132 40.253 6.32081 41.0219 7.11785C41.8191 7.8962 42.4287 8.83388 42.8134 9.87485C43.1416 10.7188 43.5355 11.9938 43.6388 14.3288C43.7513 16.8606 43.7795 17.6199 43.7795 24.0243C43.7795 30.4288 43.7513 31.1789 43.6388 33.7107Z" fill="#31C12B"/>
<path d="M24.089 11.6749C17.2816 11.6749 11.7585 17.1977 11.7585 24.0054C11.7585 30.8131 17.2816 36.3359 24.089 36.3359C30.8967 36.3359 36.4195 30.8131 36.4195 24.0054C36.4195 17.1977 30.8967 11.6749 24.089 11.6749ZM24.089 32.0039C19.6727 32.0039 16.0905 28.422 16.0905 24.0054C16.0905 19.5888 19.6727 16.0069 24.089 16.0069C28.5056 16.0069 32.0875 19.5888 32.0875 24.0054C32.0875 28.422 28.5056 32.0039 24.089 32.0039V32.0039Z" fill="white"/>
<path d="M39.786 11.1874C39.786 12.7771 38.4971 14.0661 36.907 14.0661C35.3174 14.0661 34.0284 12.7771 34.0284 11.1874C34.0284 9.59741 35.3174 8.30882 36.907 8.30882C38.4971 8.30882 39.786 9.59741 39.786 11.1874V11.1874Z" fill="white"/>
</g>
<defs>
<clipPath id="clip0_1_616">
<rect width="48" height="48" fill="white" transform="translate(0 0.000976562)"/>
</clipPath>
</defs>
</svg>
