<svg width="64" height="64" viewBox="0 0 64 64" fill="none" xmlns="http://www.w3.org/2000/svg">
<g clip-path="url(#clip0_1_199)">
<path d="M16.2 58.1H30.4V41.7H10.3C10.3 41.7 9.59996 47.4 9.59996 49.4C9.29996 58 16.2 58.1 16.2 58.1" fill="#68963B"/>
<path d="M19.5 34.8L26 38.6L17.4 23.4L0 23.5L6.5 27.3L1.3 36.3C0.8 37.2 0.2 38.7 1 40L9.9 55.3C11.5 58.1 14.3 58 16.3 58C16.3 58 7.2 56.1 13 46.1L19.5 34.8Z" fill="#83BF4F"/>
<path d="M62.5 32.7L55.4 20.4L41.2 28.6L51.2 46C51.2 46 56.5 43.7 58.2 42.8C65.8 38.7 62.5 32.7 62.5 32.7" fill="#68963B"/>
<path d="M40.5999 41.5V34L31.7 49L40.5999 64V56.5H51C52.1 56.5 53.6 56.2 54.4 54.9L63.2999 39.6C64.8999 36.8 63.5 34.5 62.5 32.7C62.5 32.7 65.4 41.5 53.7999 41.5H40.5999Z" fill="#83BF4F"/>
<path d="M18 4.09999L10.9 16.4L25.1 24.6L35.1 7.19999C35.1 7.19999 30.5 3.69999 28.8 2.69999C21.6 -1.70001 18 4.09999 18 4.09999Z" fill="#68963B"/>
<path d="M36.6 18.7L30.1 22.5L47.5 22.7L56.1 7.5L49.6 11.3L44.4 2.3C43.8 1.2 42.8 0 41.3 0H23.6C20.4 0 19 2.4 18 4.1C18 4.1 24.2 -2.8 30 7.2L36.6 18.7Z" fill="#83BF4F"/>
</g>
<defs>
<clipPath id="clip0_1_199">
<rect width="64" height="64" fill="white"/>
</clipPath>
</defs>
</svg>
