<svg width="94" height="94" viewBox="0 0 294 294" fill="none" xmlns="http://www.w3.org/2000/svg">
<path d="M95.667 97H196.667V198H95.667V97ZM260.667 135V159H279C287.284 159 294 165.716 294 174C294 182.284 287.284 189 279 189H260.667V214H279C287.284 214 294 220.716 294 229C294 237.284 287.284 244 279 244H260.667V245.5C260.667 253.784 254.118 261 245.834 261H243.667V279C243.667 287.284 236.951 294 228.667 294C220.383 294 213.667 287.284 213.667 279V261H188.667V279C188.667 287.284 181.951 294 173.667 294C165.383 294 158.667 287.284 158.667 279V261H134.667V279C134.667 287.284 127.951 294 119.667 294C111.383 294 104.667 287.284 104.667 279V261H79.667V279C79.667 287.284 72.951 294 64.667 294C56.383 294 49.667 287.284 49.667 279V261H48.5C40.216 261 32.667 253.784 32.667 245.5V244H15C6.716 244 0 237.284 0 229C0 220.716 6.716 214 15 214H32.667V189H15C6.716 189 0 182.284 0 174C0 165.716 6.716 159 15 159H32.667V135H15C6.716 135 0 128.284 0 120C0 111.716 6.716 105 15 105H32.667V80H15C6.716 80 0 73.284 0 65C0 56.716 6.716 50 15 50H32.667V48.5C32.667 40.216 40.216 34 48.5 34H49.667V15C49.667 6.716 56.383 0 64.667 0C72.951 0 79.667 6.716 79.667 15V34H104.667V15C104.667 6.716 111.383 0 119.667 0C127.951 0 134.667 6.716 134.667 15V34H158.667V15C158.667 6.716 165.383 0 173.667 0C181.951 0 188.667 6.716 188.667 15V34H213.667V15C213.667 6.716 220.383 0 228.667 0C236.951 0 243.667 6.716 243.667 15V34H245.834C254.118 34 260.667 40.216 260.667 48.5V50H279C287.284 50 294 56.716 294 65C294 73.284 287.284 80 279 80H260.667V105H279C287.284 105 294 111.716 294 120C294 128.284 287.284 135 279 135H260.667ZM226.667 82C226.667 73.716 219.951 67 211.667 67H80.667C72.383 67 65.667 73.716 65.667 82V213C65.667 221.284 72.383 228 80.667 228H211.667C219.951 228 226.667 221.284 226.667 213V82Z" fill="#7244F7"/>
</svg>
