<svg width="200" height="200" viewBox="0 0 200 200" fill="none" xmlns="http://www.w3.org/2000/svg">
<circle cx="100" cy="100" r="100" fill="#ECEDF1"/>
<circle cx="100" cy="100" r="90" fill="white"/>
<path d="M143.778 69.4445H58.2222C56.6014 69.4445 55.047 70.0883 53.901 71.2344C52.7549 72.3804 52.1111 73.9348 52.1111 75.5556V124.444C52.1111 126.065 52.7549 127.62 53.901 128.766C55.047 129.912 56.6014 130.556 58.2222 130.556H143.778C145.399 130.556 146.953 129.912 148.099 128.766C149.245 127.62 149.889 126.065 149.889 124.444V75.5556C149.889 73.9348 149.245 72.3804 148.099 71.2344C146.953 70.0883 145.399 69.4445 143.778 69.4445V69.4445ZM58.2222 124.444V109.625C62.0419 109.906 65.63 111.563 68.3214 114.288C71.0127 117.013 72.6246 120.622 72.8583 124.444H58.2222ZM58.2222 90.375V75.5556H72.8583C72.6246 79.3785 71.0127 82.987 68.3214 85.712C65.63 88.4371 62.0419 90.0938 58.2222 90.375V90.375ZM101 121.847C90.3972 121.847 81.75 112.039 81.75 100C81.75 87.9611 90.3972 78.1528 101 78.1528C111.603 78.1528 120.25 87.9611 120.25 100C120.25 112.039 111.603 121.847 101 121.847ZM143.778 124.444H129.264C129.494 120.641 131.089 117.048 133.755 114.326C136.421 111.603 139.98 109.934 143.778 109.625V124.444ZM143.778 90.375C139.98 90.0657 136.421 88.3966 133.755 85.6742C131.089 82.9519 129.494 79.3591 129.264 75.5556H143.778V90.375Z" fill="#678B4E"/>
<path d="M101 114.422C107.75 114.422 113.222 107.965 113.222 100C113.222 92.0348 107.75 85.5778 101 85.5778C94.2498 85.5778 88.7778 92.0348 88.7778 100C88.7778 107.965 94.2498 114.422 101 114.422Z" fill="#678B4E"/>
</svg>
