<svg width="100" height="100" viewBox="0 0 100 100" fill="none" xmlns="http://www.w3.org/2000/svg">
<path d="M80 10H100V85C100 88.9782 98.4196 92.7936 95.6066 95.6066C92.7936 98.4196 88.9782 100 85 100H15C11.0218 100 7.20644 98.4196 4.3934 95.6066C1.58035 92.7936 0 88.9782 0 85L0 0H80V10ZM80 20V85C80 86.3261 80.5268 87.5979 81.4645 88.5355C82.4021 89.4732 83.6739 90 85 90C86.3261 90 87.5979 89.4732 88.5355 88.5355C89.4732 87.5979 90 86.3261 90 85V20H80ZM10 10V85C10 86.3261 10.5268 87.5979 11.4645 88.5355C12.4021 89.4732 13.6739 90 15 90H70.85C70.283 88.3942 69.9955 86.703 70 85V10H10ZM20 50H60V60H20V50ZM20 70H60V80H20V70ZM20 20H60V40H20V20Z" fill="#2349E4"/>
</svg>
