<svg width="32" height="32" viewBox="0 0 32 32" fill="none" xmlns="http://www.w3.org/2000/svg">
<rect width="32" height="32" rx="7" fill="#31C12B"/>
<ellipse cx="16" cy="15.9592" rx="13" ry="12" fill="white"/>
<path d="M16.2545 3.95923C8.38197 3.95923 2 9.33181 2 15.9592C2 22.5866 8.38197 27.9592 16.2545 27.9592C24.1271 27.9592 30.5091 22.5866 30.5091 15.9592C30.5091 9.33181 24.1271 3.95923 16.2545 3.95923ZM11.1318 8.72583C11.4255 8.71125 11.691 8.85903 11.8922 9.12133L13.8411 12.2326C14.0463 12.6013 13.9297 12.9961 13.6236 13.2595L12.7309 14.011C12.6758 14.0745 12.6396 14.1461 12.6387 14.2248C12.981 15.3403 14.0194 16.3693 14.9356 17.0769C15.8518 17.7845 16.8364 18.7425 18.1147 18.9695C18.2727 19.0066 18.4662 19.0199 18.5793 18.9314L19.6163 18.0422C19.9743 17.8138 20.4922 17.7031 20.8744 17.8899H20.8918L24.4084 19.6375C24.9246 19.9098 24.9781 20.4363 24.6085 20.7566L22.1864 22.7795C21.8287 23.0883 21.3535 23.1922 20.8918 23.1926C18.8499 23.1411 16.9206 22.2974 15.3358 21.4304C12.7346 19.8374 10.3486 17.8615 8.85062 15.4744C8.27611 14.4734 7.60123 13.1962 7.66564 12.0789C7.67139 11.6586 7.80647 11.2468 8.15808 10.9759L10.5802 8.93681C10.7689 8.80165 10.9556 8.73459 11.1318 8.72583Z" fill="#31C12B"/>
</svg>
