<svg width="48" height="48" viewBox="0 0 48 48" fill="none" xmlns="http://www.w3.org/2000/svg">
<path d="M7 1.25098H41C44.1756 1.25098 46.75 3.82534 46.75 7.00098V41.001C46.75 44.1766 44.1756 46.751 41 46.751H7C3.82436 46.751 1.25 44.1766 1.25 41.001V7.00098C1.25 3.82534 3.82436 1.25098 7 1.25098Z" fill="#31C12B" stroke="#31C12B" stroke-width="2.5"/>
<path d="M34.7552 13.5297L10.1713 23.1098C9.37499 23.4201 9.42322 24.5628 10.2429 24.8048L16.4899 26.6495L18.8213 34.0473C19.0649 34.82 20.0441 35.0543 20.611 34.4755L23.8408 31.1776L30.1782 35.8293C30.9537 36.3986 32.0582 35.9757 32.2551 35.034L36.4524 14.967C36.6579 13.984 35.6909 13.1651 34.7552 13.5297ZM31.673 17.9831L20.2539 28.081C20.1401 28.1816 20.0677 28.321 20.0507 28.472L19.6111 32.3802C19.5967 32.5076 19.4184 32.5245 19.3803 32.402L17.5715 26.5735C17.4886 26.3067 17.5966 26.0176 17.834 25.8703L31.3188 17.507C31.6289 17.3145 31.9464 17.7414 31.673 17.9831Z" fill="white"/>
</svg>
