<svg width="200" height="200" viewBox="0 0 200 200" fill="none" xmlns="http://www.w3.org/2000/svg">
<circle cx="100" cy="100" r="100" fill="#ECEDF1"/>
<circle cx="100" cy="100" r="90" fill="white"/>
<path d="M62.5 66.6667C60.2898 66.6667 58.1702 67.5447 56.6074 69.1075C55.0446 70.6703 54.1666 72.7899 54.1666 75V120.833H62.5C62.5 124.149 63.8169 127.328 66.1611 129.672C68.5053 132.016 71.6848 133.333 75 133.333C78.3152 133.333 81.4946 132.016 83.8388 129.672C86.183 127.328 87.5 124.149 87.5 120.833H112.5C112.5 124.149 113.817 127.328 116.161 129.672C118.505 132.016 121.685 133.333 125 133.333C128.315 133.333 131.495 132.016 133.839 129.672C136.183 127.328 137.5 124.149 137.5 120.833H145.833V100L133.333 83.3334H120.833V66.6667H62.5ZM91.6666 75L108.333 91.6667L91.6666 108.333V95.8333H66.6666V87.5H91.6666V75ZM120.833 89.5834H131.25L139.458 100H120.833V89.5834ZM75 114.583C76.6576 114.583 78.2473 115.242 79.4194 116.414C80.5915 117.586 81.25 119.176 81.25 120.833C81.25 122.491 80.5915 124.081 79.4194 125.253C78.2473 126.425 76.6576 127.083 75 127.083C73.3424 127.083 71.7526 126.425 70.5805 125.253C69.4084 124.081 68.75 122.491 68.75 120.833C68.75 119.176 69.4084 117.586 70.5805 116.414C71.7526 115.242 73.3424 114.583 75 114.583V114.583ZM125 114.583C126.658 114.583 128.247 115.242 129.419 116.414C130.591 117.586 131.25 119.176 131.25 120.833C131.25 122.491 130.591 124.081 129.419 125.253C128.247 126.425 126.658 127.083 125 127.083C123.342 127.083 121.753 126.425 120.581 125.253C119.408 124.081 118.75 122.491 118.75 120.833C118.75 119.176 119.408 117.586 120.581 116.414C121.753 115.242 123.342 114.583 125 114.583Z" fill="#678B4E"/>
</svg>
