<svg width="200" height="200" viewBox="0 0 200 200" fill="none" xmlns="http://www.w3.org/2000/svg">
<g opacity="0.2" clip-path="url(#clip0_1_339)">
<path d="M50.625 181.563H95V130.312H32.1875C32.1875 130.312 30 148.125 30 154.375C29.0625 181.25 50.625 181.563 50.625 181.563" fill="#68963B"/>
<path d="M60.9375 108.75L81.25 120.625L54.375 73.125L0 73.4375L20.3125 85.3125L4.0625 113.437C2.5 116.25 0.625 120.938 3.125 125L30.9375 172.812C35.9375 181.562 44.6875 181.25 50.9375 181.25C50.9375 181.25 22.5 175.312 40.625 144.062L60.9375 108.75Z" fill="#83BF4F"/>
<path d="M195.313 102.188L173.125 63.75L128.75 89.375L160 143.75C160 143.75 176.563 136.562 181.875 133.75C205.625 120.937 195.313 102.188 195.313 102.188" fill="#68963B"/>
<path d="M126.875 129.687V106.25L99.0625 153.125L126.875 200V176.562H159.375C162.812 176.562 167.5 175.625 170 171.563L197.812 123.75C202.812 115 198.437 107.812 195.312 102.188C195.312 102.188 204.375 129.687 168.125 129.687H126.875Z" fill="#83BF4F"/>
<path d="M56.25 12.8125L34.0625 51.25L78.4375 76.875L109.687 22.5C109.687 22.5 95.3125 11.5625 90 8.43748C67.5 -5.31252 56.25 12.8125 56.25 12.8125Z" fill="#68963B"/>
<path d="M114.375 58.4375L94.0625 70.3125L148.438 70.9375L175.313 23.4375L155 35.3125L138.75 7.1875C136.875 3.75 133.75 0 129.063 0H73.75C63.75 0 59.375 7.5 56.25 12.8125C56.25 12.8125 75.625 -8.75 93.75 22.5L114.375 58.4375Z" fill="#83BF4F"/>
</g>
<defs>
<clipPath id="clip0_1_339">
<rect width="200" height="200" fill="white"/>
</clipPath>
</defs>
</svg>
