<svg width="200" height="200" viewBox="0 0 200 200" fill="none" xmlns="http://www.w3.org/2000/svg">
<circle cx="100" cy="100" r="100" fill="#ECEDF1"/>
<circle cx="100" cy="100" r="90" fill="white"/>
<g clip-path="url(#clip0_1_181)">
<path d="M139.653 104.767H99.54C97.3905 104.601 95.2623 105.289 93.616 106.68C91.9696 108.072 90.9376 110.056 90.7433 112.203L90.74 112.233C90.9371 114.409 91.9899 116.417 93.6668 117.816C95.3438 119.216 97.5079 119.892 99.6833 119.697L99.6533 119.7H139.653C139.905 119.723 140.159 119.696 140.4 119.62C140.641 119.544 140.865 119.42 141.058 119.257C141.25 119.093 141.409 118.893 141.523 118.667C141.637 118.442 141.705 118.196 141.723 117.943V106.53C141.658 106.042 141.418 105.595 141.048 105.27C140.677 104.946 140.202 104.767 139.71 104.767H139.65H139.653ZM99.54 116.893C98.5972 116.893 97.6756 116.614 96.8918 116.09C96.1079 115.566 95.4969 114.822 95.1362 113.951C94.7754 113.08 94.681 112.121 94.8649 111.197C95.0488 110.272 95.5028 109.423 96.1694 108.756C96.8361 108.09 97.6854 107.636 98.6101 107.452C99.5347 107.268 100.493 107.362 101.364 107.723C102.235 108.084 102.98 108.695 103.503 109.478C104.027 110.262 104.307 111.184 104.307 112.127V112.14C104.307 114.767 102.177 116.893 99.5533 116.893H99.54Z" fill="#678B4E"/>
<path d="M71.9833 60V81.3467H76.5433V72.2267C77.0033 72.34 77.5367 72.4133 78.0833 72.4333H78.0967C79.7444 72.4289 81.3234 71.7727 82.4888 70.6079C83.6543 69.4431 84.3114 67.8644 84.3167 66.2167C84.3056 65.6755 84.2318 65.1375 84.0967 64.6133L84.1067 64.6633H109.08C108.96 65.1684 108.89 65.6844 108.873 66.2033V66.2167C108.878 67.8644 109.534 69.4434 110.699 70.6088C111.864 71.7743 113.442 72.4314 115.09 72.4367C115.65 72.4167 116.187 72.3433 116.7 72.2167L116.647 72.2267V81.3467H121.317V60H71.9833Z" fill="#678B4E"/>
<path d="M123.28 78.7534H129.083C128.649 77.4905 127.887 76.3654 126.875 75.4929C125.864 74.6204 124.64 74.0317 123.327 73.7867L123.28 73.78V78.7534Z" fill="#678B4E"/>
<path d="M99.2367 102.28H139.03V90.1567C138.86 88.3583 137.99 86.6989 136.607 85.536C135.225 84.3731 133.441 83.7999 131.64 83.94H131.663H68.4633C68.4095 83.8813 68.3359 83.8445 68.2567 83.8367C67.8185 83.6308 67.4434 83.3114 67.1702 82.9117C66.8971 82.5119 66.7359 82.0464 66.7033 81.5633V81.5567C66.7564 80.9571 66.9914 80.3881 67.3768 79.9258C67.7623 79.4635 68.2798 79.13 68.86 78.97L68.88 78.9667V73.6833C64.5233 73.89 61 80.1067 61 87.88V133.787C61.172 135.583 62.0417 137.24 63.4223 138.402C64.8029 139.564 66.5842 140.137 68.3833 140H68.36H131.56C133.351 140.132 135.124 139.559 136.498 138.402C137.873 137.246 138.741 135.598 138.917 133.81L138.92 133.783V121.66H99.3467C92.9233 121.66 87.74 117.307 87.74 112.023C87.74 106.637 92.92 102.283 99.24 102.283L99.2367 102.28Z" fill="#678B4E"/>
</g>
<defs>
<clipPath id="clip0_1_181">
<rect width="80" height="80" fill="white" transform="translate(61 60)"/>
</clipPath>
</defs>
</svg>
