<svg width="200" height="200" viewBox="0 0 200 200" fill="none" xmlns="http://www.w3.org/2000/svg">
<circle cx="100" cy="100" r="100" fill="#ECEDF1"/>
<circle cx="100" cy="100" r="90" fill="white"/>
<path d="M104.167 82.625C107.708 81.375 110.542 78.5416 111.792 75H125L112.5 104.167C112.5 111.083 119.042 116.667 127.083 116.667C135.125 116.667 141.667 111.083 141.667 104.167L129.167 75H133.5C135.709 75 137.5 73.2091 137.5 71V70.6666C137.5 68.4575 135.709 66.6666 133.5 66.6666H111.792C110.083 61.7916 105.458 58.3333 100 58.3333C94.5417 58.3333 89.9166 61.7916 88.2083 66.6666H66.5C64.2908 66.6666 62.5 68.4575 62.5 70.6666V71C62.5 73.2091 64.2908 75 66.5 75H70.8333L58.3333 104.167C58.3333 111.083 64.875 116.667 72.9166 116.667C80.9583 116.667 87.5 111.083 87.5 104.167L75 75H88.2083C89.4583 78.5416 92.2916 81.375 95.8333 82.625V129.167H62.3333C60.1242 129.167 58.3333 130.958 58.3333 133.167V133.5C58.3333 135.709 60.1242 137.5 62.3333 137.5H137.667C139.876 137.5 141.667 135.709 141.667 133.5V133.167C141.667 130.957 139.876 129.167 137.667 129.167H104.167V82.625ZM134.875 104.167H119.292L127.083 86L134.875 104.167ZM80.7083 104.167H65.125L72.9166 86L80.7083 104.167ZM100 75C97.7083 75 95.8333 73.125 95.8333 70.8333C95.8333 68.5416 97.7083 66.6666 100 66.6666C102.292 66.6666 104.167 68.5416 104.167 70.8333C104.167 73.125 102.292 75 100 75Z" fill="#678B4E"/>
</svg>
